<mxfile host="app.diagrams.net" modified="2022-01-21T02:46:09.903Z" agent="5.0 (Windows NT 10.0; Win64; x64) AppleWebKit/537.36 (KHTML, like Gecko) Chrome/97.0.4692.71 Safari/537.36" etag="sNYxays29oKspBZb9EjY" version="16.2.6" type="github">
  <diagram id="yO2HKSFom-pBJyG8K0Lk" name="Page-1">
    <mxGraphModel dx="1597" dy="842" grid="1" gridSize="10" guides="1" tooltips="1" connect="1" arrows="1" fold="1" page="1" pageScale="1" pageWidth="1100" pageHeight="850" math="0" shadow="0">
      <root>
        <mxCell id="0" />
        <mxCell id="1" parent="0" />
        <mxCell id="V8brmzeKyugt_rMQ_-Xu-11" value="Customer&lt;br&gt;Arrives" style="ellipse;whiteSpace=wrap;html=1;strokeColor=#FFE599;strokeWidth=3;" vertex="1" parent="1">
          <mxGeometry x="50" y="180" width="120" height="80" as="geometry" />
        </mxCell>
        <mxCell id="V8brmzeKyugt_rMQ_-Xu-19" value="&lt;br&gt;&lt;br&gt;Customer&lt;br&gt;Waits" style="verticalLabelPosition=middle;verticalAlign=middle;html=1;shape=mxgraph.basic.acute_triangle;dx=0.5;strokeWidth=3;strokeColor=#FFE599;labelPosition=center;align=center;" vertex="1" parent="1">
          <mxGeometry x="240" y="185" width="100" height="70" as="geometry" />
        </mxCell>
        <mxCell id="V8brmzeKyugt_rMQ_-Xu-20" value="&lt;p style=&quot;line-height: normal ; margin: 0pt 0in ; text-indent: 0in ; direction: ltr ; unicode-bidi: embed ; vertical-align: baseline ; word-break: normal&quot;&gt;&lt;span style=&quot;font-size: 9pt ; font-family: &amp;#34;calibri&amp;#34; ; font-weight: bold ; vertical-align: baseline&quot;&gt;Server&lt;br/&gt;&lt;/span&gt;&lt;span style=&quot;font-size: 9pt ; font-family: &amp;#34;calibri&amp;#34; ; font-weight: bold&quot;&gt;Greets&lt;br/&gt;Customer to Collect Drink Order&lt;/span&gt;&lt;/p&gt;" style="whiteSpace=wrap;html=1;aspect=fixed;strokeColor=#FFE599;strokeWidth=3;" vertex="1" parent="1">
          <mxGeometry x="340" y="310" width="80" height="80" as="geometry" />
        </mxCell>
        <mxCell id="V8brmzeKyugt_rMQ_-Xu-21" value="Customer&lt;br&gt;Orders Drinks" style="whiteSpace=wrap;aspect=fixed;strokeColor=#FFE599;strokeWidth=3;html=1;" vertex="1" parent="1">
          <mxGeometry x="420" y="185" width="80" height="80" as="geometry" />
        </mxCell>
        <mxCell id="V8brmzeKyugt_rMQ_-Xu-22" value="&lt;p style=&quot;line-height: normal ; margin: 0pt 0in ; text-indent: 0in ; direction: ltr ; unicode-bidi: embed ; vertical-align: baseline ; word-break: normal&quot;&gt;&lt;font face=&quot;calibri&quot;&gt;&lt;b&gt;Server Gets&lt;/b&gt;&lt;/font&gt;&lt;/p&gt;&lt;p style=&quot;line-height: normal ; margin: 0pt 0in ; text-indent: 0in ; direction: ltr ; unicode-bidi: embed ; vertical-align: baseline ; word-break: normal&quot;&gt;&lt;font face=&quot;calibri&quot;&gt;&lt;b&gt;Drinks&lt;/b&gt;&lt;/font&gt;&lt;/p&gt;" style="whiteSpace=wrap;html=1;aspect=fixed;strokeColor=#FFE599;strokeWidth=3;" vertex="1" parent="1">
          <mxGeometry x="530" y="310" width="80" height="80" as="geometry" />
        </mxCell>
        <mxCell id="V8brmzeKyugt_rMQ_-Xu-24" value="" style="endArrow=classic;html=1;rounded=0;strokeColor=#EA6B66;entryX=0;entryY=0;entryDx=25;entryDy=35;entryPerimeter=0;exitX=1;exitY=0.5;exitDx=0;exitDy=0;" edge="1" parent="1" source="V8brmzeKyugt_rMQ_-Xu-11" target="V8brmzeKyugt_rMQ_-Xu-19">
          <mxGeometry width="50" height="50" relative="1" as="geometry">
            <mxPoint x="140" y="340" as="sourcePoint" />
            <mxPoint x="190" y="290" as="targetPoint" />
          </mxGeometry>
        </mxCell>
        <mxCell id="V8brmzeKyugt_rMQ_-Xu-25" value="" style="endArrow=classic;html=1;rounded=0;strokeColor=#3333FF;entryX=0;entryY=0.5;entryDx=0;entryDy=0;edgeStyle=orthogonalEdgeStyle;exitX=0.5;exitY=1;exitDx=0;exitDy=0;exitPerimeter=0;" edge="1" parent="1" source="V8brmzeKyugt_rMQ_-Xu-19" target="V8brmzeKyugt_rMQ_-Xu-20">
          <mxGeometry width="50" height="50" relative="1" as="geometry">
            <mxPoint x="220" y="400" as="sourcePoint" />
            <mxPoint x="270" y="350" as="targetPoint" />
          </mxGeometry>
        </mxCell>
        <mxCell id="V8brmzeKyugt_rMQ_-Xu-26" value="" style="endArrow=classic;html=1;rounded=0;strokeColor=#3333FF;entryX=1;entryY=0.25;entryDx=0;entryDy=0;edgeStyle=orthogonalEdgeStyle;exitX=0.5;exitY=1;exitDx=0;exitDy=0;startArrow=classic;startFill=1;" edge="1" parent="1" source="V8brmzeKyugt_rMQ_-Xu-21" target="V8brmzeKyugt_rMQ_-Xu-20">
          <mxGeometry width="50" height="50" relative="1" as="geometry">
            <mxPoint x="300" y="265" as="sourcePoint" />
            <mxPoint x="350" y="360" as="targetPoint" />
          </mxGeometry>
        </mxCell>
        <mxCell id="V8brmzeKyugt_rMQ_-Xu-27" value="" style="endArrow=classic;html=1;rounded=0;strokeColor=#3333FF;entryX=0;entryY=0.75;entryDx=0;entryDy=0;exitX=1;exitY=0.75;exitDx=0;exitDy=0;" edge="1" parent="1" source="V8brmzeKyugt_rMQ_-Xu-20" target="V8brmzeKyugt_rMQ_-Xu-22">
          <mxGeometry width="50" height="50" relative="1" as="geometry">
            <mxPoint x="300" y="265" as="sourcePoint" />
            <mxPoint x="350" y="360" as="targetPoint" />
          </mxGeometry>
        </mxCell>
        <mxCell id="V8brmzeKyugt_rMQ_-Xu-28" value="C" style="verticalLabelPosition=middle;verticalAlign=middle;html=1;shape=mxgraph.basic.acute_triangle;dx=0.5;strokeWidth=3;strokeColor=#FFE599;labelPosition=center;align=center;fillColor=#FFE599;" vertex="1" parent="1">
          <mxGeometry x="550" y="202.5" width="70" height="45" as="geometry" />
        </mxCell>
        <mxCell id="V8brmzeKyugt_rMQ_-Xu-29" value="" style="endArrow=classic;html=1;rounded=0;strokeColor=#EA6B66;entryX=0;entryY=0;entryDx=17.5;entryDy=22.5;entryPerimeter=0;exitX=1;exitY=0.5;exitDx=0;exitDy=0;" edge="1" parent="1" source="V8brmzeKyugt_rMQ_-Xu-21" target="V8brmzeKyugt_rMQ_-Xu-28">
          <mxGeometry width="50" height="50" relative="1" as="geometry">
            <mxPoint x="180" y="230" as="sourcePoint" />
            <mxPoint x="275" y="230" as="targetPoint" />
          </mxGeometry>
        </mxCell>
        <mxCell id="V8brmzeKyugt_rMQ_-Xu-30" value="Customer&lt;br&gt;Places Meal Order" style="whiteSpace=wrap;aspect=fixed;strokeColor=#FFE599;strokeWidth=3;html=1;" vertex="1" parent="1">
          <mxGeometry x="670" y="185" width="80" height="80" as="geometry" />
        </mxCell>
        <mxCell id="V8brmzeKyugt_rMQ_-Xu-31" value="&lt;p style=&quot;margin-top: 0pt ; margin-bottom: 0pt ; margin-left: 0in ; direction: ltr ; unicode-bidi: embed ; vertical-align: baseline ; word-break: normal&quot;&gt;&lt;span style=&quot;font-size: 9pt ; font-family: &amp;#34;calibri&amp;#34; ; font-weight: bold ; vertical-align: baseline&quot;&gt;Server&lt;br/&gt;&lt;/span&gt;&lt;span style=&quot;font-size: 9pt ; font-family: &amp;#34;calibri&amp;#34; ; font-weight: bold&quot;&gt;Collects&lt;br/&gt;Food&amp;nbsp;Order&lt;/span&gt;&lt;/p&gt;" style="whiteSpace=wrap;aspect=fixed;strokeColor=#FFE599;strokeWidth=3;html=1;" vertex="1" parent="1">
          <mxGeometry x="740" y="310" width="80" height="80" as="geometry" />
        </mxCell>
        <mxCell id="V8brmzeKyugt_rMQ_-Xu-32" value="&lt;p style=&quot;line-height: normal ; margin: 0pt 0in ; text-indent: 0in ; direction: ltr ; unicode-bidi: embed ; vertical-align: baseline ; word-break: normal&quot;&gt;&lt;span style=&quot;font-size: 9pt ; font-family: &amp;#34;calibri&amp;#34; ; font-weight: bold ; vertical-align: baseline&quot;&gt;Server&lt;br/&gt;Places Order&lt;/span&gt;&lt;/p&gt;" style="whiteSpace=wrap;aspect=fixed;strokeColor=#FFE599;strokeWidth=3;html=1;" vertex="1" parent="1">
          <mxGeometry x="740" y="440" width="80" height="80" as="geometry" />
        </mxCell>
        <mxCell id="V8brmzeKyugt_rMQ_-Xu-33" value="&lt;p style=&quot;line-height: normal ; margin: 0pt 0in ; text-indent: 0in ; direction: ltr ; unicode-bidi: embed ; vertical-align: baseline ; word-break: normal&quot;&gt;&lt;span style=&quot;font-size: 9pt ; font-family: &amp;#34;calibri&amp;#34; ; font-weight: bold ; vertical-align: baseline&quot;&gt;Chef&lt;br/&gt;Receives Order&lt;/span&gt;&lt;/p&gt;" style="whiteSpace=wrap;aspect=fixed;strokeColor=#FFE599;strokeWidth=3;html=1;" vertex="1" parent="1">
          <mxGeometry x="890" y="440" width="80" height="80" as="geometry" />
        </mxCell>
        <mxCell id="V8brmzeKyugt_rMQ_-Xu-35" value="Prep Food Order 1Â " style="rounded=0;whiteSpace=wrap;strokeColor=#FFE599;strokeWidth=3;fillColor=none;html=1;" vertex="1" parent="1">
          <mxGeometry x="1020" y="372.5" width="80" height="40" as="geometry" />
        </mxCell>
        <mxCell id="V8brmzeKyugt_rMQ_-Xu-36" value="Prep Food Order 2" style="rounded=0;whiteSpace=wrap;strokeColor=#FFE599;strokeWidth=3;fillColor=none;html=1;" vertex="1" parent="1">
          <mxGeometry x="1020" y="427.5" width="80" height="40" as="geometry" />
        </mxCell>
        <mxCell id="V8brmzeKyugt_rMQ_-Xu-37" value="Prep Food Order 3" style="rounded=0;whiteSpace=wrap;strokeColor=#FFE599;strokeWidth=3;fillColor=none;html=1;" vertex="1" parent="1">
          <mxGeometry x="1020" y="487.5" width="80" height="40" as="geometry" />
        </mxCell>
        <mxCell id="V8brmzeKyugt_rMQ_-Xu-38" value="Prep Food Order 4" style="rounded=0;whiteSpace=wrap;strokeColor=#FFE599;strokeWidth=3;fillColor=none;html=1;" vertex="1" parent="1">
          <mxGeometry x="1020" y="547.5" width="80" height="40" as="geometry" />
        </mxCell>
        <mxCell id="V8brmzeKyugt_rMQ_-Xu-39" value="Raw&#xa;Food" style="verticalLabelPosition=middle;verticalAlign=middle;shape=mxgraph.basic.acute_triangle;dx=0.5;strokeWidth=3;strokeColor=#FFE599;labelPosition=center;align=center;" vertex="1" parent="1">
          <mxGeometry x="800" y="570" width="100" height="70" as="geometry" />
        </mxCell>
        <mxCell id="V8brmzeKyugt_rMQ_-Xu-40" value="&#xa;&#xa;Finished&#xa;Order" style="verticalLabelPosition=middle;verticalAlign=middle;shape=mxgraph.basic.acute_triangle;dx=0.5;strokeWidth=3;strokeColor=#FFE599;labelPosition=center;align=center;" vertex="1" parent="1">
          <mxGeometry x="1170" y="450" width="100" height="70" as="geometry" />
        </mxCell>
        <mxCell id="V8brmzeKyugt_rMQ_-Xu-41" value="&lt;p style=&quot;line-height: normal ; margin: 0pt 0in ; text-indent: 0in ; direction: ltr ; unicode-bidi: embed ; vertical-align: baseline ; word-break: normal&quot;&gt;&lt;span style=&quot;font-size: 9pt ; font-family: &amp;#34;calibri&amp;#34; ; font-weight: bold ; vertical-align: baseline&quot;&gt;Chef&lt;br/&gt;Receives Order&lt;/span&gt;&lt;/p&gt;" style="whiteSpace=wrap;aspect=fixed;strokeColor=#FFE599;strokeWidth=3;html=1;" vertex="1" parent="1">
          <mxGeometry x="1330" y="445" width="80" height="80" as="geometry" />
        </mxCell>
        <mxCell id="V8brmzeKyugt_rMQ_-Xu-42" value="Server&lt;br&gt;Delivers Order to Customer" style="whiteSpace=wrap;aspect=fixed;strokeColor=#FFE599;strokeWidth=3;html=1;" vertex="1" parent="1">
          <mxGeometry x="1470" y="445" width="80" height="80" as="geometry" />
        </mxCell>
        <mxCell id="V8brmzeKyugt_rMQ_-Xu-52" value="" style="endArrow=classic;html=1;rounded=0;strokeColor=#EA6B66;entryX=0;entryY=0.5;entryDx=0;entryDy=0;exitX=0;exitY=0;exitDx=52.5;exitDy=22.5;exitPerimeter=0;" edge="1" parent="1" source="V8brmzeKyugt_rMQ_-Xu-28" target="V8brmzeKyugt_rMQ_-Xu-30">
          <mxGeometry width="50" height="50" relative="1" as="geometry">
            <mxPoint x="510" y="235" as="sourcePoint" />
            <mxPoint x="577.5" y="235" as="targetPoint" />
          </mxGeometry>
        </mxCell>
        <mxCell id="V8brmzeKyugt_rMQ_-Xu-53" value="C" style="verticalLabelPosition=middle;verticalAlign=middle;html=1;shape=mxgraph.basic.acute_triangle;dx=0.5;strokeWidth=3;strokeColor=#FFE599;labelPosition=center;align=center;fillColor=#FFE599;" vertex="1" parent="1">
          <mxGeometry x="1120" y="202.5" width="70" height="45" as="geometry" />
        </mxCell>
        <mxCell id="V8brmzeKyugt_rMQ_-Xu-54" value="" style="endArrow=classic;html=1;rounded=0;strokeColor=#EA6B66;entryX=0;entryY=0;entryDx=17.5;entryDy=22.5;exitX=1;exitY=0.5;exitDx=0;exitDy=0;entryPerimeter=0;" edge="1" parent="1" source="V8brmzeKyugt_rMQ_-Xu-30" target="V8brmzeKyugt_rMQ_-Xu-53">
          <mxGeometry width="50" height="50" relative="1" as="geometry">
            <mxPoint x="612.5" y="235" as="sourcePoint" />
            <mxPoint x="680" y="235" as="targetPoint" />
          </mxGeometry>
        </mxCell>
        <mxCell id="V8brmzeKyugt_rMQ_-Xu-55" value="&lt;p style=&quot;margin-top: 0pt ; margin-bottom: 0pt ; margin-left: 0in ; direction: ltr ; unicode-bidi: embed ; vertical-align: baseline ; word-break: normal&quot;&gt;&lt;font face=&quot;calibri&quot;&gt;&lt;b&gt;Customer&lt;/b&gt;&lt;/font&gt;&lt;/p&gt;&lt;p style=&quot;margin-top: 0pt ; margin-bottom: 0pt ; margin-left: 0in ; direction: ltr ; unicode-bidi: embed ; vertical-align: baseline ; word-break: normal&quot;&gt;&lt;font face=&quot;calibri&quot;&gt;&lt;b&gt;Receives&lt;/b&gt;&lt;/font&gt;&lt;/p&gt;&lt;p style=&quot;margin-top: 0pt ; margin-bottom: 0pt ; margin-left: 0in ; direction: ltr ; unicode-bidi: embed ; vertical-align: baseline ; word-break: normal&quot;&gt;&lt;font face=&quot;calibri&quot;&gt;&lt;b&gt;Order&lt;/b&gt;&lt;/font&gt;&lt;/p&gt;" style="whiteSpace=wrap;aspect=fixed;strokeColor=#FFE599;strokeWidth=3;html=1;" vertex="1" parent="1">
          <mxGeometry x="1410" y="180" width="80" height="80" as="geometry" />
        </mxCell>
        <mxCell id="V8brmzeKyugt_rMQ_-Xu-56" value="" style="endArrow=classic;html=1;rounded=0;strokeColor=#3333FF;entryX=0.5;entryY=1;entryDx=0;entryDy=0;edgeStyle=orthogonalEdgeStyle;exitX=1;exitY=0.5;exitDx=0;exitDy=0;" edge="1" parent="1" source="V8brmzeKyugt_rMQ_-Xu-22" target="V8brmzeKyugt_rMQ_-Xu-30">
          <mxGeometry width="50" height="50" relative="1" as="geometry">
            <mxPoint x="449.91999999999973" y="557.5" as="sourcePoint" />
            <mxPoint x="499.91999999999973" y="652.5" as="targetPoint" />
            <Array as="points">
              <mxPoint x="710" y="350" />
            </Array>
          </mxGeometry>
        </mxCell>
      </root>
    </mxGraphModel>
  </diagram>
</mxfile>
